<?xml version="1.0" encoding="utf-8"?>
<!-- Generator: Adobe Illustrator 16.0.0, SVG Export Plug-In . SVG Version: 6.00 Build 0)  -->
<!DOCTYPE svg PUBLIC "-//W3C//DTD SVG 1.1//EN" "http://www.w3.org/Graphics/SVG/1.1/DTD/svg11.dtd">
<svg version="1.1" id="Layer_1" xmlns="http://www.w3.org/2000/svg" xmlns:xlink="http://www.w3.org/1999/xlink" x="0px" y="0px"
	 width="400px" height="136.478px" viewBox="0 0 400 136.478" enable-background="new 0 0 400 136.478" xml:space="preserve">
<text transform="matrix(1 0 0 1 -276.0347 302.7334)" font-family="'DancingScriptOT'" font-size="66">Angelique</text>
<g>
	<path d="M-53.582,298.016c0,0,0.468-1.335,1.382-3.614c0.449-1.14,0.994-2.524,1.618-4.112c0.625-1.582,1.315-3.367,2.03-5.318
		c0.71-1.952,1.434-4.076,2.093-6.331c0.632-2.261,1.227-4.654,1.542-7.119c0.335-2.448,0.364-5.021-0.404-7.282
		c-0.76-2.216-2.55-4.232-4.795-4.304c-1.128-0.065-2.342,0.263-3.478,0.812c-1.141,0.547-2.211,1.31-3.183,2.169
		c-1.917,1.724-3.57,3.891-4.279,6.143c-0.343,1.122-0.296,2.227,0.363,2.704c0.757,0.553,1.773,0.567,2.402-0.104
		c0.669-0.678,1.023-1.78,1.209-2.816c0.187-1.055,0.214-2.12,0.153-3.133c-0.13-2.028-0.611-3.885-1.374-5.336
		c-0.745-1.457-1.889-2.455-3.029-2.612c-1.138-0.182-2.045,0.253-2.6,0.532c-0.563,0.306-0.839,0.517-0.838,0.517
		c-0.066,0.05-0.16,0.038-0.21-0.028c-0.049-0.063-0.039-0.153,0.021-0.205l0.009-0.008c0,0,0.271-0.231,0.845-0.584
		c0.569-0.318,1.506-0.855,2.842-0.721c0.656,0.069,1.359,0.359,1.98,0.843c0.619,0.487,1.164,1.144,1.616,1.906
		c0.906,1.53,1.509,3.455,1.763,5.604c0.121,1.077,0.154,2.215,0.009,3.401c-0.167,1.171-0.426,2.457-1.39,3.587
		c-0.485,0.548-1.251,0.993-2.063,1.04c-0.823,0.059-1.577-0.161-2.272-0.628c-0.708-0.488-1.154-1.349-1.26-2.141
		c-0.115-0.8-0.013-1.556,0.159-2.265c0.362-1.417,1.019-2.689,1.791-3.888c0.779-1.196,1.702-2.306,2.748-3.32
		c1.05-1.009,2.223-1.931,3.57-2.651c1.339-0.714,2.883-1.246,4.569-1.234c0.837,0.01,1.695,0.17,2.493,0.485
		c0.394,0.166,0.782,0.352,1.136,0.582c0.343,0.202,0.77,0.546,0.991,0.737c1.241,1.094,2.152,2.438,2.751,3.896
		c0.599,1.451,0.895,2.964,0.984,4.427c0.097,1.466,0.037,2.893-0.131,4.268c-0.357,2.747-1.07,5.281-1.893,7.604
		c-0.811,2.328-1.731,4.452-2.643,6.374c-0.91,1.922-1.823,3.638-2.657,5.141c-0.835,1.503-1.601,2.788-2.252,3.834
		c-1.277,2.104-2.049,3.28-2.049,3.28c-0.045,0.07-0.139,0.09-0.209,0.044C-53.581,298.153-53.604,298.08-53.582,298.016z"/>
</g>
<g>
	<path d="M-173.287,263.59c0-1.601,0.175-3.255,0.455-4.871l0.322-1.209c0.078-0.401,0.254-0.793,0.349-1.19
		c0.103-0.396,0.223-0.795,0.337-1.188l0.403-1.163c0.238-0.785,0.569-1.535,0.883-2.291c0.292-0.767,0.686-1.486,1.042-2.224
		c0.739-1.462,1.592-2.866,2.521-4.22c0.933-1.352,1.969-2.633,3.078-3.857c0.561-0.605,1.167-1.171,1.75-1.759
		c0.632-0.536,1.259-1.082,1.915-1.595c1.347-0.979,2.75-1.914,4.312-2.582c0.398-0.172,0.756-0.338,1.188-0.513l1.146-0.393
		c0.78-0.24,1.625-0.503,2.441-0.661c1.644-0.36,3.352-0.552,5.077-0.465c1.724,0.082,3.455,0.47,5.063,1.145
		c1.612,0.673,3.088,1.629,4.397,2.741c1.301,1.127,2.504,2.331,3.492,3.737c0.481,0.664,0.997,1.228,1.43,2.033l0.676,1.135
		c0.234,0.378,0.448,0.761,0.604,1.159c0.741,1.558,1.319,3.195,1.69,4.861c0.375,1.667,0.595,3.333,0.76,4.98
		c0.125,1.649,0.226,3.27,0.279,4.887l-2.008-1.375c0.652-0.156,1.272-0.381,1.952-0.469c0.335-0.053,0.668-0.114,1.005-0.152
		l1.034-0.046c0.341-0.031,0.696,0.027,1.043,0.042c0.349,0.013,0.697,0.062,1.044,0.141c0.696,0.114,1.381,0.343,2.035,0.622
		c0.656,0.287,1.271,0.654,1.833,1.086c0.558,0.438,1.055,0.934,1.501,1.465c0.206,0.276,0.423,0.545,0.614,0.829
		c0.177,0.291,0.36,0.579,0.525,0.873l0.441,0.907l0.354,0.934c0.198,0.632,0.361,1.27,0.477,1.915
		c0.106,0.646,0.176,1.293,0.199,1.942c0.019,0.65-0.017,1.299-0.091,1.943c-0.08,0.645-0.213,1.282-0.39,1.908
		c-0.194,0.625-0.448,1.231-0.784,1.801c-0.335,0.568-0.747,1.103-1.263,1.535c-0.517,0.422-1.121,0.767-1.777,0.882
		c-0.649,0.157-1.306,0.053-1.912-0.076c-0.081-0.017-0.132,0.135-0.115,0.054c0.015-0.071,0.079,0.113,0.149,0.113h0.019
		c0.589,0,1.172-0.243,1.683-0.474c0.525-0.174,0.959-0.644,1.321-1.041c0.359-0.408,0.629-0.951,0.834-1.464
		c0.212-0.511,0.331-1.091,0.439-1.638c0.085-0.556,0.135-1.131,0.137-1.695c0-0.565-0.047-1.135-0.118-1.693
		c-0.075-0.558-0.19-1.111-0.333-1.651c-0.152-0.538-0.342-1.06-0.556-1.566l-0.359-0.737l-0.408-0.699l-0.462-0.651
		c-0.164-0.207-0.345-0.395-0.514-0.594c-0.365-0.37-0.754-0.702-1.172-0.983c-0.426-0.268-0.861-0.51-1.328-0.682
		c-0.467-0.167-0.946-0.307-1.45-0.358c-0.246-0.047-0.498-0.07-0.756-0.062c-0.258,0.006-0.507-0.036-0.77,0.008l-0.779,0.074
		l-0.784,0.151c-0.524,0.076-1.044,0.291-1.566,0.423l-1.882,0.477l-0.127-1.853l-0.328-4.788c-0.118-1.572-0.286-3.117-0.582-4.613
		c-0.052-0.383-0.149-0.748-0.255-1.11l-0.287-1.098c-0.169-0.742-0.517-1.413-0.763-2.127c-0.61-1.368-1.249-2.615-2.258-3.965
		c-0.815-1.28-1.879-2.422-2.975-3.45c-1.117-1.016-2.357-1.877-3.71-2.498c-1.351-0.621-2.81-1.005-4.312-1.128
		c-1.502-0.127-3.039-0.011-4.559,0.269c-0.775,0.124-1.485,0.322-2.255,0.528l-1.159,0.354l-1.05,0.417
		c-1.435,0.554-2.768,1.379-4.063,2.252c-0.631,0.462-1.241,0.958-1.858,1.445c-0.578,0.535-1.18,1.046-1.742,1.601
		c-1.113,1.124-2.167,2.313-3.128,3.58c-0.957,1.269-1.846,2.595-2.628,3.984c-0.378,0.701-0.792,1.386-1.108,2.119
		c-0.339,0.722-0.689,1.441-0.955,2.195l-0.43,1.119c-0.129,0.377-0.233,0.763-0.351,1.145c-0.11,0.384-0.24,0.763-0.334,1.151
		l-0.248,1.172c-0.343,1.56-0.436,3.151-0.42,4.778c0.001,0.083-0.311,0.15-0.394,0.151c-0.081,0.001-0.396-0.062-0.396-0.141
		V263.59z"/>
</g>
<text transform="matrix(1 0 0 1 121.9653 295.7334)" font-family="'DancingScriptOT'" font-size="66">Angelique</text>
<g>
	<path d="M348.568,281.426l5.427-24.649l0.073,0.447c-0.425-0.564-0.784-1.177-1.263-1.696c-0.229-0.266-0.447-0.543-0.687-0.8
		l-0.744-0.743c-0.512-0.478-1.041-0.939-1.608-1.348l-0.856-0.604l-0.899-0.539c-0.616-0.328-1.227-0.671-1.88-0.926
		c-0.638-0.289-1.306-0.505-1.969-0.732c-0.677-0.187-1.35-0.385-2.043-0.515c-0.685-0.159-1.386-0.249-2.084-0.343
		c-2.804-0.342-5.663-0.239-8.482,0.128c-1.41,0.187-2.813,0.448-4.198,0.773c-0.694,0.16-1.381,0.344-2.064,0.536
		c-0.676,0.195-1.374,0.412-1.997,0.639c-0.344,0.125-0.71,0.065-0.987-0.131l-0.03-0.021c-1.23-0.878-2.469-1.742-3.744-2.543
		c-0.63-0.412-1.288-0.774-1.931-1.164c-0.646-0.385-1.316-0.716-1.973-1.078c-0.664-0.343-1.345-0.649-2.016-0.975
		c-0.688-0.28-1.364-0.596-2.061-0.847c-1.384-0.532-2.797-0.955-4.222-1.292c-0.717-0.137-1.431-0.297-2.151-0.375
		c-0.718-0.109-1.438-0.151-2.156-0.186c-0.719-0.025-1.433-0.006-2.144,0.038c-0.709,0.063-1.411,0.15-2.104,0.278
		c-1.383,0.266-2.725,0.698-3.97,1.309c-0.624,0.302-1.217,0.658-1.776,1.046c-0.543,0.363-1.141,0.853-1.478,1.208l-0.042,0.044
		c-0.592,0.624-1.578,0.649-2.202,0.057c-0.559-0.531-0.637-1.378-0.221-1.997c2.107-3.141,4.277-6.239,6.456-9.332l0.048-0.068
		c0.161-0.229,0.388-0.388,0.637-0.467c0.742-0.236,1.357-0.37,2.034-0.502c0.662-0.125,1.326-0.217,1.992-0.282
		c1.329-0.133,2.664-0.156,3.991-0.086s2.648,0.24,3.942,0.522c1.297,0.273,2.566,0.659,3.796,1.134
		c1.231,0.469,2.418,1.047,3.545,1.711c1.138,0.648,2.21,1.397,3.215,2.219c1.012,0.813,1.952,1.703,2.84,2.634
		c0.896,0.924,1.691,1.933,2.458,2.953c0.049,0.066,0.036,0.161-0.03,0.21c-0.061,0.045-0.143,0.038-0.195-0.013l-0.005-0.004
		c-0.454-0.442-0.896-0.893-1.357-1.323c-0.481-0.41-0.918-0.861-1.411-1.251c-0.96-0.807-1.959-1.561-3.009-2.228
		c-0.514-0.349-1.065-0.638-1.594-0.957c-0.549-0.286-1.083-0.594-1.647-0.841c-1.108-0.535-2.264-0.956-3.43-1.312
		c-1.167-0.357-2.357-0.628-3.561-0.792c-1.202-0.165-2.412-0.254-3.621-0.253c-1.208,0.003-2.416,0.09-3.604,0.275
		c-0.594,0.09-1.181,0.209-1.762,0.338c-0.564,0.128-1.184,0.299-1.645,0.465l0.685-0.534c-2.033,3.19-4.075,6.375-6.181,9.517
		l-2.465-1.896c0.718-0.762,1.334-1.226,2.055-1.73c0.71-0.472,1.446-0.892,2.21-1.245c1.525-0.712,3.141-1.194,4.776-1.476
		c0.818-0.139,1.643-0.216,2.466-0.254c0.822-0.023,1.643-0.014,2.457,0.044c0.813,0.068,1.624,0.148,2.419,0.296
		c0.803,0.117,1.582,0.32,2.366,0.5c1.551,0.414,3.068,0.921,4.532,1.534c0.738,0.293,1.445,0.648,2.168,0.969
		c0.7,0.365,1.409,0.712,2.097,1.093c0.679,0.396,1.375,0.764,2.038,1.183c0.659,0.423,1.336,0.82,1.979,1.264
		c1.303,0.866,2.558,1.792,3.802,2.729l-1.018-0.152c0.752-0.252,1.451-0.446,2.18-0.637c0.723-0.183,1.447-0.357,2.177-0.505
		c1.457-0.302,2.928-0.537,4.409-0.695c2.96-0.308,5.969-0.341,8.941,0.1c0.74,0.12,1.483,0.235,2.214,0.424
		c0.735,0.159,1.455,0.389,2.175,0.61c0.709,0.261,1.421,0.514,2.104,0.844c0.695,0.295,1.353,0.68,2.004,1.062l0.954,0.617
		l0.904,0.686c0.598,0.463,1.154,0.981,1.686,1.515l0.772,0.827c0.247,0.284,0.471,0.588,0.706,0.881
		c0.49,0.574,0.853,1.237,1.28,1.852c0.091,0.13,0.114,0.286,0.078,0.429l-0.005,0.019l-6.276,24.447
		c-0.021,0.081-0.102,0.129-0.183,0.108C348.598,281.583,348.55,281.504,348.568,281.426z"/>
</g>
<g>
	<path d="M316.213,276.46c0,0,0.096-1.734,0.494-4.269c0.19-1.271,0.454-2.742,0.778-4.308c0.171-0.78,0.319-1.594,0.522-2.408
		c0.195-0.815,0.394-1.644,0.592-2.473c0.221-0.823,0.441-1.646,0.659-2.456c0.206-0.813,0.467-1.598,0.688-2.366
		c0.461-1.531,0.932-2.95,1.371-4.156c0.86-2.419,1.605-3.987,1.605-3.987s-0.094,1.734-0.492,4.27
		c-0.189,1.271-0.452,2.742-0.777,4.307c-0.172,0.78-0.318,1.595-0.524,2.408c-0.195,0.815-0.395,1.644-0.593,2.473
		c-0.221,0.823-0.442,1.646-0.66,2.456c-0.21,0.812-0.468,1.598-0.689,2.366c-0.462,1.531-0.933,2.949-1.372,4.156
		C316.957,274.891,316.213,276.46,316.213,276.46z"/>
</g>
<text transform="matrix(1 0 0 1 121.9653 410.7334)" fill="#1A1A1A" font-family="'DancingScriptOT'" font-size="66">Angelique</text>
<g>
	<path fill="#666666" d="M348.568,396.426l5.427-24.649l0.073,0.447c-0.425-0.564-0.784-1.177-1.263-1.696
		c-0.229-0.266-0.447-0.543-0.687-0.8l-0.744-0.743c-0.512-0.478-1.041-0.939-1.608-1.348l-0.856-0.604l-0.899-0.539
		c-0.616-0.328-1.227-0.671-1.88-0.926c-0.638-0.289-1.306-0.505-1.969-0.732c-0.677-0.187-1.35-0.385-2.043-0.515
		c-0.685-0.159-1.386-0.249-2.084-0.343c-2.804-0.342-5.663-0.239-8.482,0.128c-1.41,0.188-2.813,0.449-4.198,0.774
		c-0.694,0.16-1.381,0.344-2.064,0.536c-0.676,0.195-1.374,0.412-1.997,0.639c-0.344,0.125-0.71,0.065-0.987-0.131l-0.03-0.021
		c-1.23-0.878-2.469-1.742-3.744-2.543c-0.63-0.412-1.288-0.774-1.931-1.164c-0.646-0.385-1.316-0.716-1.973-1.078
		c-0.664-0.343-1.345-0.649-2.016-0.975c-0.688-0.28-1.364-0.596-2.061-0.847c-1.384-0.532-2.797-0.955-4.222-1.292
		c-0.717-0.137-1.431-0.297-2.151-0.375c-0.718-0.109-1.438-0.151-2.156-0.186c-0.719-0.025-1.433-0.006-2.144,0.038
		c-0.709,0.063-1.411,0.15-2.104,0.278c-1.383,0.266-2.725,0.698-3.97,1.309c-0.624,0.302-1.217,0.658-1.776,1.046
		c-0.543,0.363-1.141,0.853-1.478,1.208l-0.042,0.044c-0.592,0.624-1.578,0.649-2.202,0.057c-0.58-0.55-0.643-1.44-0.173-2.064
		c2.106-2.807,4.274-5.569,6.451-8.324l0.052-0.066c0.139-0.175,0.321-0.304,0.516-0.379c0.724-0.278,1.328-0.446,1.993-0.617
		c0.652-0.163,1.308-0.296,1.967-0.396c1.317-0.212,2.646-0.308,3.974-0.31c2.654-0.012,5.306,0.437,7.796,1.299
		c0.627,0.2,1.23,0.466,1.836,0.719c0.592,0.285,1.189,0.556,1.756,0.883c0.581,0.301,1.126,0.663,1.679,1.004
		c0.533,0.375,1.071,0.739,1.572,1.151c1.021,0.798,1.968,1.678,2.857,2.602c0.454,0.453,0.862,0.948,1.283,1.428
		c0.403,0.496,0.784,1.009,1.175,1.51c0.051,0.065,0.039,0.16-0.026,0.21c-0.06,0.046-0.144,0.041-0.196-0.01l-0.008-0.007
		c-0.453-0.44-0.895-0.889-1.354-1.316c-0.481-0.406-0.917-0.855-1.411-1.24c-0.961-0.798-1.963-1.54-3.016-2.189
		c-0.517-0.339-1.069-0.62-1.602-0.925c-0.55-0.275-1.088-0.569-1.655-0.801c-1.115-0.504-2.274-0.891-3.446-1.2
		c-0.583-0.167-1.18-0.281-1.771-0.396c-0.596-0.106-1.194-0.187-1.795-0.246c-1.201-0.107-2.407-0.134-3.607-0.068
		c-1.2,0.068-2.396,0.221-3.564,0.476c-0.586,0.121-1.162,0.277-1.732,0.438c-0.554,0.161-1.16,0.366-1.609,0.559l0.566-0.445
		c-2.036,2.86-4.08,5.715-6.186,8.523l-2.417-1.963c0.718-0.762,1.334-1.226,2.055-1.73c0.71-0.472,1.446-0.892,2.21-1.245
		c1.525-0.712,3.141-1.194,4.776-1.476c0.818-0.139,1.643-0.216,2.466-0.254c0.822-0.023,1.643-0.014,2.457,0.044
		c0.813,0.068,1.624,0.148,2.419,0.296c0.803,0.118,1.582,0.32,2.366,0.5c1.551,0.414,3.068,0.921,4.532,1.534
		c0.738,0.293,1.445,0.648,2.168,0.969c0.7,0.365,1.409,0.712,2.097,1.093c0.679,0.396,1.375,0.764,2.038,1.183
		c0.659,0.423,1.336,0.82,1.979,1.264c1.303,0.866,2.558,1.792,3.802,2.729l-1.018-0.152c0.752-0.252,1.451-0.446,2.18-0.637
		c0.723-0.183,1.447-0.357,2.177-0.505c1.457-0.302,2.928-0.537,4.409-0.695c2.96-0.308,5.969-0.341,8.941,0.1
		c0.74,0.12,1.483,0.235,2.214,0.424c0.735,0.159,1.455,0.389,2.175,0.61c0.709,0.261,1.421,0.514,2.104,0.844
		c0.695,0.295,1.353,0.68,2.004,1.062l0.954,0.617l0.904,0.686c0.598,0.463,1.154,0.981,1.686,1.515l0.772,0.827
		c0.247,0.284,0.471,0.588,0.706,0.881c0.49,0.574,0.853,1.237,1.28,1.852c0.091,0.13,0.114,0.286,0.078,0.429l-0.005,0.019
		l-6.276,24.447c-0.021,0.081-0.102,0.129-0.183,0.108C348.598,396.583,348.55,396.504,348.568,396.426z"/>
</g>
<g>
	<path fill="#666666" d="M316.213,391.46c0,0,0.096-1.734,0.494-4.269c0.19-1.271,0.454-2.742,0.778-4.308
		c0.171-0.78,0.319-1.594,0.522-2.408c0.195-0.815,0.394-1.644,0.592-2.473c0.221-0.823,0.441-1.646,0.659-2.456
		c0.206-0.813,0.467-1.598,0.688-2.366c0.461-1.531,0.932-2.95,1.371-4.156c0.86-2.419,1.605-3.987,1.605-3.987
		s-0.094,1.734-0.492,4.27c-0.189,1.271-0.452,2.742-0.777,4.307c-0.172,0.78-0.318,1.595-0.524,2.408
		c-0.195,0.815-0.395,1.644-0.593,2.473c-0.221,0.823-0.442,1.646-0.66,2.456c-0.21,0.812-0.468,1.598-0.689,2.366
		c-0.462,1.531-0.933,2.949-1.372,4.156C316.957,389.891,316.213,391.46,316.213,391.46z"/>
</g>
<g>
	<g>
		<path fill="#1A1A1A" d="M1.014,73.05c1.577-4.281,5.971-5.858,11.716-5.858c2.479,0,5.183,0.337,8.111,0.789
			c11.492-17.237,24.786-34.474,31.77-41.008c2.253-2.141,3.944-3.154,5.408-3.154c1.577,0,3.718,1.351,5.971,3.604
			c-4.506,3.606-17.575,47.205-17.575,66.92c0,5.746,1.126,9.013,4.169,9.013c3.942,0,8.9-5.295,14.758-16.673l1.127,1.126
			c-4.507,12.055-12.055,20.504-19.491,20.504c-6.196,0-8.788-5.972-8.788-15.096c0-4.845,0.676-10.59,1.916-16.787
			c-6.646-1.014-12.055-1.689-16.673-2.253c-7.098,13.068-13.97,27.264-19.603,40.558C0.451,112.819,0,110.341,0,108.875
			c0-6.196,7.548-20.279,17.125-35.262c-5.521-0.451-9.351-0.563-12.167-0.563H1.014z M26.363,68.994
			c5.069,1.127,10.251,2.479,14.533,3.493c3.268-14.871,8.9-31.207,13.52-41.572C47.43,35.196,36.839,50.292,26.363,68.994z"/>
		<path fill="#1A1A1A" d="M66.924,76.429c0.901-1.014,3.042-2.366,5.182-2.366c2.028,0,3.042,1.127,3.042,2.929
			c0,2.366-1.578,8.675-3.605,14.872c5.971-9.126,14.87-19.829,23.433-19.829c5.858,0,8.337,5.069,8.337,10.139
			c0,6.985-4.62,12.28-4.62,17.801c0,3.155,1.464,4.281,3.38,4.281c5.633,0,11.604-9.238,15.772-17.574l1.24,1.464
			c-4.732,11.041-11.042,19.039-19.491,19.039c-5.294,0-7.885-3.042-7.885-7.21c0-4.619,3.267-10.365,3.267-15.66
			c0-4.168-1.916-5.52-4.506-5.52c-9.351,0-19.716,17.913-25.574,27.827c-2.366,0-4.731-0.789-5.971-2.478
			C58.925,102.792,66.812,86.231,66.924,76.429z"/>
		<path fill="#1A1A1A" d="M144.551,70.008c-11.83,0-22.645,16.11-22.645,25.573c0,3.605,1.578,5.521,3.943,5.521
			c4.281,0,10.928-6.648,16.674-14.872l1.352-5.971c0.451-2.141,2.028-5.746,5.746-5.746c0.676,0,1.464,0.112,2.366,0.337
			c0,3.718-3.493,17.462-8.675,30.869c7.323-3.493,14.984-10.477,18.364-19.039l1.465,1.126
			c-3.493,10.139-14.083,17.8-21.068,21.181c-6.308,15.209-13.519,27.489-21.968,27.489c-3.268,0-6.534-1.916-6.534-6.534
			c0-9.126,12.505-15.097,21.968-19.829c2.028-5.182,3.943-11.266,5.746-18.589c-5.746,8.225-12.054,14.42-18.363,14.42
			c-5.408,0-8.45-4.394-8.45-10.928c0-15.659,17.688-29.178,29.855-29.178c4.28,0,6.083,1.689,6.083,3.605
			c0,1.352-1.014,2.141-1.352,2.253C148.269,70.571,146.804,70.008,144.551,70.008z M134.299,113.156
			c-8.9,4.507-17.237,9.351-17.237,15.772c0,2.367,1.126,3.944,2.703,3.944C122.695,132.873,128.328,127.577,134.299,113.156z"/>
		<path fill="#1A1A1A" d="M165.847,93.104c-0.338,1.465-0.45,2.929-0.45,4.055c0,4.62,1.915,9.463,8.9,9.463
			c9.576,0,19.603-9.125,25.236-19.94l1.352,1.013c-6.083,13.52-17.801,22.194-28.954,22.194c-9.126,0-13.745-5.746-13.745-13.068
			c0-13.407,15.322-32.446,28.616-32.446c3.492,0,6.984,1.352,6.984,6.872C193.787,82.738,178.69,91.864,165.847,93.104z
			 M166.411,90.963c7.999-2.816,22.419-10.815,22.419-20.504c0-1.689-0.45-2.591-2.366-2.591
			C179.254,67.868,169.452,80.26,166.411,90.963z"/>
		<path fill="#1A1A1A" d="M206.521,84.654c-0.902,4.056-1.464,7.999-1.464,11.379c0,5.858,1.689,8.675,4.957,8.675
			c5.971,0,12.28-9.238,16.223-18.025l1.689,0.901c-5.971,12.843-13.068,20.729-21.18,20.729c-6.422,0-9.013-4.957-9.013-11.604
			c0-21.63,27.376-72.891,35.038-72.891c2.366,0,3.718,5.182,3.718,8.336C236.488,42.181,222.969,71.022,206.521,84.654z
			 M207.535,80.824c13.068-13.182,25.461-38.53,25.461-46.078c0-1.464-0.45-1.803-0.789-1.803
			C229.166,32.943,213.731,59.08,207.535,80.824z"/>
		<path fill="#1A1A1A" d="M242.236,69.219c0,3.719-11.716,17.351-11.716,27.94c0,5.408,1.802,6.76,5.521,6.76
			c5.07,0,10.928-4.395,17.35-17.237l1.014,1.126c-4.394,12.956-13.407,20.054-22.194,20.054c-5.858,0-8.675-4.169-8.675-9.463
			c0-8.563,8.563-31.658,16.224-31.658C241.11,66.741,242.236,67.642,242.236,69.219z M241.11,52.545
			c0-3.154,4.619-5.858,8.224-5.858c2.253,0,3.717,0.901,3.717,3.493c0,2.816-3.717,6.083-7.322,6.083
			C243.25,56.263,241.11,55.137,241.11,52.545z"/>
		<path fill="#1A1A1A" d="M279.979,68.206c-12.394,0-22.42,20.729-22.42,29.292c0,3.379,1.577,5.407,3.943,5.407
			c5.971,0,14.083-12.73,21.067-23.884c1.69-2.704,3.492-3.492,4.956-3.492c1.804,0,2.254,1.127,2.254,2.028
			c0,3.718-6.872,10.364-9.914,24.109c6.421-0.563,13.068-3.943,18.814-14.871l1.353,1.239
			c-4.958,11.378-13.407,15.659-20.393,16.335c1.239,3.943,1.916,8.111,1.916,12.731c0,10.59-3.605,19.377-8.338,19.377
			c-2.141,0-3.942-1.803-3.942-8.225c0-7.773,2.591-22.87,6.646-34.361c-5.971,8.563-12.279,14.42-17.8,14.42
			c-3.831,0-8.449-2.704-8.449-9.689c0-13.069,16.447-33.911,31.544-33.911c5.069,0,8.9,2.366,8.9,5.521
			c0,1.916-1.352,4.168-3.717,4.168C286.401,71.134,284.596,68.206,279.979,68.206z M278.289,107.637
			c-1.915,7.999-2.93,15.434-2.93,19.49c0,1.915,0.227,3.154,0.902,3.154c1.689,0,2.815-7.548,2.815-14.195
			C279.077,113.044,278.852,110.341,278.289,107.637z"/>
		<path fill="#1A1A1A" d="M333.158,77.331c0,1.239-7.549,15.546-7.549,23.095c0,2.704,1.014,4.506,3.718,4.506
			c4.731,0,13.294-6.647,18.813-18.25l1.466,1.013c-4.845,12.167-14.646,20.617-22.645,20.617c-5.972,0-7.888-3.718-7.888-8.337
			c0-1.802,0.339-3.718,0.789-5.633c-4.168,7.436-9.124,13.97-14.758,13.97c-5.069,0-8.45-5.295-8.45-11.379
			c0-8.562,6.535-25.574,9.914-25.574c0.789,0,2.93,0.902,4.17,2.254c-2.479,3.831-7.549,15.097-7.549,22.645
			c0,1.916,0.338,7.548,4.056,7.548c6.983,0,16.223-20.955,20.504-29.404C328.989,74.627,333.158,75.416,333.158,77.331z"/>
		<path fill="#1A1A1A" d="M352.2,93.104c-0.337,1.465-0.45,2.929-0.45,4.055c0,4.62,1.915,9.463,8.9,9.463
			c9.576,0,19.602-9.125,25.235-19.94l1.352,1.013c-6.083,13.52-17.8,22.194-28.952,22.194c-9.126,0-13.745-5.746-13.745-13.068
			c0-13.407,15.322-32.446,28.615-32.446c3.493,0,6.985,1.352,6.985,6.872C380.14,82.738,365.042,91.864,352.2,93.104z
			 M352.763,90.963c7.999-2.816,22.419-10.815,22.419-20.504c0-1.689-0.45-2.591-2.365-2.591
			C365.606,67.868,355.805,80.26,352.763,90.963z"/>
	</g>
	<path fill="#666666" d="M388.752,80.508l9.264-42.08l0.126,0.763c-0.726-0.963-1.339-2.01-2.156-2.896
		c-0.392-0.455-0.764-0.927-1.172-1.366l-1.271-1.269c-0.873-0.815-1.776-1.604-2.745-2.3l-1.462-1.032l-1.536-0.919
		c-1.052-0.56-2.094-1.146-3.209-1.581c-1.089-0.494-2.229-0.863-3.36-1.25c-1.156-0.319-2.305-0.657-3.488-0.879
		c-1.168-0.271-2.365-0.424-3.558-0.585c-4.786-0.584-9.667-0.408-14.48,0.219c-2.407,0.32-4.801,0.766-7.167,1.321
		c-1.185,0.273-2.357,0.587-3.523,0.915c-1.154,0.333-2.346,0.703-3.41,1.09c-0.586,0.214-1.212,0.111-1.685-0.223l-0.052-0.036
		c-2.101-1.5-4.215-2.974-6.392-4.342c-1.076-0.704-2.199-1.321-3.296-1.986c-1.103-0.657-2.248-1.223-3.368-1.84
		c-1.134-0.585-2.296-1.108-3.44-1.665c-1.176-0.479-2.329-1.017-3.518-1.446c-2.362-0.909-4.775-1.63-7.207-2.205
		c-1.224-0.234-2.442-0.508-3.673-0.64c-1.226-0.186-2.456-0.257-3.681-0.316c-1.228-0.043-2.446-0.011-3.659,0.065
		c-1.211,0.106-2.409,0.257-3.593,0.474c-2.361,0.455-4.651,1.192-6.777,2.235c-1.065,0.516-2.077,1.124-3.032,1.786
		c-0.927,0.62-1.947,1.457-2.522,2.063l-0.071,0.075c-1.011,1.065-2.694,1.109-3.76,0.098c-0.99-0.939-1.097-2.459-0.295-3.524
		c3.596-4.792,7.297-9.506,11.013-14.21l0.089-0.114c0.236-0.299,0.548-0.518,0.88-0.646c1.235-0.475,2.268-0.761,3.402-1.054
		c1.114-0.278,2.232-0.506,3.357-0.676c2.249-0.362,4.519-0.525,6.784-0.529c4.531-0.021,9.058,0.746,13.309,2.218
		c1.07,0.341,2.101,0.796,3.134,1.228c1.011,0.487,2.03,0.948,2.997,1.508c0.992,0.514,1.923,1.131,2.866,1.714
		c0.91,0.64,1.829,1.262,2.684,1.965c1.742,1.363,3.359,2.864,4.878,4.442c0.775,0.773,1.473,1.619,2.191,2.438
		c0.688,0.846,1.338,1.723,2.005,2.578c0.087,0.111,0.067,0.272-0.045,0.359c-0.102,0.08-0.245,0.07-0.335-0.017l-0.014-0.012
		c-0.773-0.751-1.526-1.517-2.312-2.247c-0.822-0.693-1.565-1.459-2.409-2.117c-1.641-1.363-3.351-2.629-5.148-3.737
		c-0.882-0.58-1.825-1.058-2.733-1.579c-0.939-0.47-1.857-0.971-2.826-1.367c-1.904-0.86-3.883-1.521-5.883-2.048
		c-0.996-0.285-2.015-0.479-3.024-0.676c-1.017-0.181-2.039-0.319-3.064-0.419c-2.051-0.182-4.109-0.228-6.158-0.117
		c-2.049,0.117-4.089,0.377-6.085,0.813c-1,0.206-1.983,0.473-2.957,0.748c-0.945,0.274-1.98,0.625-2.748,0.955l0.968-0.759
		c-3.477,4.883-6.966,9.756-10.56,14.55l-4.126-3.351c1.225-1.3,2.276-2.093,3.507-2.954c1.212-0.805,2.47-1.522,3.773-2.125
		c2.604-1.215,5.361-2.039,8.153-2.519c1.397-0.237,2.804-0.368,4.209-0.433c1.404-0.04,2.805-0.023,4.195,0.076
		c1.387,0.116,2.772,0.252,4.129,0.506c1.37,0.201,2.701,0.547,4.039,0.854c2.647,0.707,5.238,1.573,7.737,2.619
		c1.261,0.501,2.468,1.106,3.701,1.654c1.195,0.623,2.405,1.215,3.579,1.866c1.159,0.676,2.348,1.305,3.479,2.019
		c1.125,0.722,2.28,1.399,3.379,2.158c2.225,1.479,4.366,3.059,6.49,4.659l-1.737-0.26c1.284-0.43,2.478-0.762,3.722-1.088
		c1.233-0.313,2.471-0.609,3.716-0.862c2.487-0.516,4.998-0.917,7.526-1.186c5.054-0.525,10.189-0.582,15.265,0.17
		c1.264,0.204,2.532,0.402,3.779,0.724c1.255,0.271,2.483,0.664,3.712,1.041c1.211,0.446,2.426,0.877,3.592,1.44
		c1.187,0.503,2.309,1.16,3.421,1.812l1.628,1.054l1.544,1.17c1.021,0.791,1.971,1.675,2.878,2.585l1.318,1.412
		c0.422,0.485,0.804,1.004,1.205,1.504c0.837,0.979,1.456,2.111,2.186,3.162c0.155,0.222,0.195,0.489,0.134,0.732l-0.009,0.032
		L389.25,80.626c-0.035,0.138-0.174,0.22-0.312,0.185C388.804,80.776,388.722,80.642,388.752,80.508z"/>
	<path fill="#666666" d="M333.52,72.031c0,0,0.163-2.96,0.843-7.288c0.325-2.169,0.775-4.681,1.329-7.354
		c0.292-1.332,0.545-2.722,0.892-4.111c0.334-1.392,0.672-2.807,1.011-4.221c0.377-1.404,0.753-2.81,1.125-4.192
		c0.352-1.387,0.797-2.728,1.176-4.039c0.786-2.614,1.59-5.036,2.34-7.095c1.469-4.129,2.741-6.807,2.741-6.807
		s-0.16,2.961-0.841,7.29c-0.323,2.169-0.771,4.68-1.326,7.353c-0.294,1.332-0.544,2.723-0.896,4.11
		c-0.334,1.392-0.674,2.807-1.012,4.221c-0.377,1.405-0.756,2.809-1.127,4.192c-0.358,1.386-0.799,2.729-1.178,4.039
		c-0.788,2.613-1.592,5.035-2.342,7.095C334.789,69.353,333.52,72.031,333.52,72.031z"/>
</g>
<text transform="matrix(1 0 0 1 -276.0347 415.7334)" font-family="'DancingScriptOT'" font-size="66">Angelique</text>
<g>
	<path d="M-158.582,401.015c0,0,0.468-1.334,1.382-3.613c0.449-1.14,0.994-2.524,1.618-4.112c0.625-1.582,1.315-3.367,2.03-5.318
		c0.71-1.952,1.434-4.076,2.093-6.331c0.632-2.261,1.227-4.654,1.542-7.119c0.335-2.448,0.364-5.021-0.404-7.282
		c-0.76-2.216-2.55-4.232-4.795-4.304c-1.128-0.065-2.342,0.263-3.478,0.812c-1.141,0.547-2.211,1.31-3.183,2.169
		c-1.917,1.724-3.57,3.891-4.279,6.143c-0.343,1.122-0.296,2.227,0.363,2.704c0.757,0.553,1.773,0.567,2.402-0.104
		c0.669-0.678,1.023-1.78,1.209-2.816c0.187-1.055,0.214-2.12,0.153-3.133c-0.13-2.028-0.611-3.885-1.374-5.336
		c-0.745-1.457-1.889-2.455-3.029-2.612c-1.138-0.182-2.045,0.253-2.6,0.532c-0.563,0.306-0.839,0.517-0.838,0.517
		c-0.066,0.05-0.16,0.038-0.21-0.028c-0.049-0.063-0.039-0.153,0.021-0.205l0.009-0.008c0,0,0.271-0.231,0.845-0.584
		c0.569-0.318,1.506-0.855,2.843-0.721c0.656,0.069,1.359,0.359,1.98,0.843c0.619,0.487,1.164,1.144,1.616,1.906
		c0.906,1.53,1.509,3.455,1.763,5.604c0.121,1.077,0.154,2.215,0.009,3.401c-0.167,1.171-0.426,2.457-1.39,3.587
		c-0.485,0.548-1.251,0.993-2.063,1.04c-0.823,0.059-1.577-0.161-2.272-0.628c-0.708-0.488-1.154-1.349-1.26-2.141
		c-0.115-0.8-0.013-1.556,0.159-2.265c0.362-1.417,1.019-2.689,1.791-3.888c0.779-1.196,1.702-2.306,2.748-3.32
		c1.05-1.009,2.223-1.931,3.57-2.651c1.339-0.714,2.883-1.246,4.569-1.234c0.837,0.01,1.695,0.17,2.493,0.485
		c0.394,0.166,0.782,0.352,1.136,0.582c0.343,0.202,0.77,0.546,0.991,0.737c1.241,1.094,2.152,2.438,2.751,3.896
		c0.599,1.451,0.895,2.964,0.984,4.427c0.097,1.466,0.037,2.893-0.131,4.268c-0.357,2.747-1.07,5.281-1.893,7.604
		c-0.811,2.328-1.731,4.452-2.643,6.374c-0.91,1.922-1.823,3.638-2.657,5.141c-0.835,1.503-1.601,2.788-2.252,3.834
		c-1.277,2.104-2.049,3.28-2.049,3.28c-0.045,0.07-0.139,0.089-0.209,0.044C-158.581,401.153-158.604,401.08-158.582,401.015z"/>
</g>
<g>
	<path d="M-54.013,369.66c1.801,1.168,3.558,2.388,5.309,3.615c1.751,1.226,3.468,2.493,5.204,3.738l5.123,3.833
		c0.859,0.632,1.688,1.3,2.533,1.949l2.523,1.961c3.381,2.595,6.676,5.291,9.979,7.978c3.288,2.705,6.548,5.441,9.782,8.208
		l2.34,2.002l-2.428,1.866l-4.878,3.747l-4.917,3.696c-3.29,2.449-6.605,4.866-9.969,7.219c-1.684,1.175-3.337,2.388-5.046,3.531
		l-5.104,3.456c-1.727,1.119-3.432,2.267-5.177,3.362c-1.74,1.103-3.487,2.196-5.272,3.24c1.45-1.475,2.939-2.9,4.436-4.315
		c1.49-1.423,3.021-2.794,4.53-4.193l4.604-4.099c1.527-1.376,3.109-2.681,4.662-4.025c3.108-2.683,6.265-5.303,9.446-7.891
		l4.791-3.859l4.83-3.808l-0.088,3.868c-3.238-2.763-6.45-5.557-9.634-8.382c-3.169-2.843-6.346-5.677-9.437-8.612l-2.331-2.187
		c-0.773-0.733-1.563-1.448-2.321-2.198l-4.585-4.461c-1.5-1.521-3.019-3.019-4.503-4.558
		C-51.1,372.802-52.579,371.257-54.013,369.66z"/>
</g>
<g>
	<path d="M-282.88,369.66c-1.435,1.597-2.914,3.142-4.398,4.68c-1.484,1.539-3.003,3.037-4.503,4.558l-4.585,4.461
		c-0.758,0.75-1.547,1.465-2.321,2.198l-2.331,2.187c-3.09,2.936-6.268,5.769-9.437,8.612c-3.184,2.826-6.396,5.62-9.634,8.382
		l-0.088-3.868l4.83,3.808l4.791,3.859c3.182,2.588,6.338,5.208,9.446,7.891c1.552,1.344,3.134,2.649,4.662,4.025l4.604,4.099
		c1.508,1.399,3.04,2.771,4.53,4.193c1.497,1.416,2.985,2.841,4.436,4.315c-1.786-1.044-3.533-2.137-5.272-3.24
		c-1.745-1.096-3.45-2.243-5.177-3.362l-5.104-3.456c-1.709-1.143-3.362-2.356-5.046-3.531c-3.364-2.354-6.679-4.771-9.969-7.219
		l-4.917-3.696l-4.878-3.747l-2.428-1.866l2.34-2.002c3.234-2.768,6.494-5.504,9.782-8.208c3.303-2.687,6.597-5.383,9.979-7.978
		l2.523-1.961c0.845-0.649,1.674-1.317,2.533-1.949l5.123-3.833c1.736-1.245,3.453-2.512,5.204-3.738
		C-286.438,372.048-284.682,370.828-282.88,369.66z"/>
</g>
</svg>
